<svg xmlns="http://www.w3.org/2000/svg" width="80" height="80" viewBox="0 0 80 80"><path d="M67.78 49.65h-1.37V16.3a1 1 0 0 0-1-1.05H50.78V10a1 1 0 0 0-1-1H10.13a1 1 0 0 0-1 1v54.2a1 1 0 0 0 1 1h34.44L44 66.89a3.13 3.13 0 0 0 4.82 3.5l5.46-4a1.05 1.05 0 0 1 1.24 0l5.47 4a3.13 3.13 0 0 0 4.82-3.5l-2.1-6.45a1 1 0 0 1 .39-1.15l5.48-4a3.13 3.13 0 0 0-1.84-5.66zm-17-13.55h8.34a1 1 0 0 0 0-2.09h-8.34v-4.16h8.34a1 1 0 0 0 0-2.09h-8.34v-4.17h8.34a1 1 0 1 0 0-2.08h-8.34v-4.17h13.55v32.31H61a1.13 1.13 0 0 1-.32 0 1.11 1.11 0 0 1-.67-.67l-2.09-6.44a3.13 3.13 0 0 0-5.94 0l-1.2 3.68zM11.17 63.2V11.08h37.52v38.57h-6.57a3.13 3.13 0 0 0-1.85 5.66l5.49 4a1 1 0 0 1 .38 1.16l-.9 2.75zm57.22-9.58l-5.48 4a3.11 3.11 0 0 0-1.14 3.49l2.1 6.44a1 1 0 0 1-1.61 1.17l-5.48-4a3.15 3.15 0 0 0-3.68 0l-5.47 4A1 1 0 0 1 46 67.53l2.1-6.44A3.11 3.11 0 0 0 47 57.6l-5.48-4a1 1 0 0 1 .62-1.89h6.77a2.89 2.89 0 0 0 1.26-.27 3.08 3.08 0 0 0 1.63-1.85l2.2-6.46a1 1 0 0 1 2 0l2 6.45a3.13 3.13 0 0 0 3 2.15h6.78a1 1 0 0 1 .61 1.89z"/><path d="M18.47 19.42H41.4a1 1 0 1 0 0-2.08H18.47a1 1 0 1 0 0 2.08zM18.47 27.76H41.4a1 1 0 1 0 0-2.08H18.47a1 1 0 1 0 0 2.08zM18.47 36.1H41.4a1 1 0 0 0 0-2.09H18.47a1 1 0 0 0 0 2.09zM42.44 43.39a1 1 0 0 0-1-1H18.47a1 1 0 0 0 0 2.09H41.4a1 1 0 0 0 1.04-1.09z"/></svg>