<svg xmlns="http://www.w3.org/2000/svg" width="80" height="80" viewBox="0 0 80 80"><path d="M18.28 58.38h10.39v-1.89H18.28a4.73 4.73 0 0 1-4.72-4.72v-16h6.06a1 1 0 0 0 .94-1.09.87.87 0 0 0-.07-.31 3.77 3.77 0 1 1 6.91 0 1 1 0 0 0 .47 1.31.9.9 0 0 0 .4.09h6.06v5.67a4.9 4.9 0 0 0-.94-.08 5.67 5.67 0 0 0-2.27 10.86l.76-1.73a3.78 3.78 0 1 1 3-6.92.94.94 0 0 0 1.24-.49.84.84 0 0 0 .08-.38v-6.91H41a6 6 0 0 0-.08 1 5.69 5.69 0 0 0 4.54 5.55l.37-1.85a3.81 3.81 0 0 1-3-3.7 3.77 3.77 0 0 1 .32-1.52.94.94 0 0 0-.49-1.27.91.91 0 0 0-.37-.08h-6.07V29.1a6 6 0 0 0 1 .08 5.67 5.67 0 0 0 0-11.33 6 6 0 0 0-1 .08v-4.8h16.06A4.73 4.73 0 0 1 57 17.85v16h-6.07a1 1 0 0 0-.94 1 .91.91 0 0 0 .08.37 3.77 3.77 0 0 1 .32 1.52h1.89a6 6 0 0 0-.08-1h5.74a1 1 0 0 0 1-.94v-17a6.62 6.62 0 0 0-6.61-6.61h-34a6.62 6.62 0 0 0-6.61 6.61v33.97a6.63 6.63 0 0 0 6.56 6.61zm-4.72-40.53a4.72 4.72 0 0 1 4.72-4.72h16v6.06a1 1 0 0 0 1 .95 1 1 0 0 0 .38-.08 3.72 3.72 0 0 1 1.51-.32 3.78 3.78 0 0 1 0 7.55 3.72 3.72 0 0 1-1.51-.29 1 1 0 0 0-1.25.49 1 1 0 0 0-.08.38v6h-4.79a4.91 4.91 0 0 0 .07-.86v-.08a5.67 5.67 0 1 0-11.33 0V33a6.11 6.11 0 0 0 .07.86h-4.79z"/><path d="M55.32 38.21a.94.94 0 0 0-1.21-.55h-.06l-6.13 2.71a1 1 0 0 0-.5 1.21c.1.26.19.46.29.67A5 5 0 0 1 48 43a3.78 3.78 0 1 1-7 2.65 3.85 3.85 0 0 1-.23-1.54.94.94 0 0 0-.89-1 .89.89 0 0 0-.39.06l-6.56 2.47a1 1 0 0 0-.55 1.21l2.36 6.3a4.81 4.81 0 0 0-.92.25 5.68 5.68 0 1 0 4 10.64 5.75 5.75 0 0 0 .87-.41l1.69 4.51a.94.94 0 0 0 1.21.55l9.35-3.53a5.1 5.1 0 0 0 3 2.68l.6-1.8a3.17 3.17 0 0 1-1.81-1.54l2.85-1.07a6.6 6.6 0 0 0 6.22 4.38v-1.88a4.75 4.75 0 0 1-4.8-4.72 1 1 0 0 0-.28-.67l-3.29-3.29a1.41 1.41 0 0 1-.13-1.82 1.38 1.38 0 0 1 1-.55 1.32 1.32 0 0 1 1.08.4l6.6 6.6 1.33-1.34-1.95-1.95a6.61 6.61 0 0 0-.08-4.41l-1.77-4.73 5.7 3.93a2.83 2.83 0 0 1 1.21 2.32v12.2h1.89V55.7a4.73 4.73 0 0 0-2-3.87l-7.94-5.47zm4.21 16.63A4.72 4.72 0 0 1 59.8 57l-3.06-3A3.28 3.28 0 0 0 52 58.53l.06.06 3 3-13.34 5-1.8-4.81a.94.94 0 0 0-.68-.59h-.2a1 1 0 0 0-.67.27A3.77 3.77 0 0 1 33.21 56a3.53 3.53 0 0 1 2.16-1 3 3 0 0 1 .6 0 .94.94 0 0 0 1-.9.84.84 0 0 0-.06-.38l-2.47-6.58 4.5-1.69a5.66 5.66 0 0 0 6.63 4.49 5.42 5.42 0 0 0 .92-.26 5.7 5.7 0 0 0 3.32-7.31c-.09-.23-.17-.42-.24-.58l4.34-1.93z"/></svg>