<svg xmlns="http://www.w3.org/2000/svg" width="80" height="80" viewBox="0 0 80 80"><circle cx="40" cy="64.34" r="1.13"/><circle cx="40" cy="46.21" r="1.13"/><circle cx="40" cy="50.74" r="1.13"/><path d="M59.94 13.62a15.24 15.24 0 0 0-5.61 1 10.38 10.38 0 0 1-3.91.74c-1.66 0-2.38-.83-3.29-1.87A5.31 5.31 0 0 0 43 11.12a4 4 0 0 0-4 4V17h-2.4a1 1 0 0 0-1 1v3.53H12.13a1 1 0 0 0-1 1v45.34a1 1 0 0 0 1 1h55.74a1 1 0 0 0 1-1V22.55a9.1 9.1 0 0 0-2.38-6.3 8.77 8.77 0 0 0-6.55-2.63zM37.61 19h4.78v2.52h-4.78zm20.51 34.27H21.88a1 1 0 0 0-1 1v3.53h-3.2V28.09H32.2v3.53a1 1 0 0 0 1 1h1.26v3.53a1 1 0 0 0 1 1H39v3.52a1 1 0 1 0 2 0v-3.51h3.52a1 1 0 0 0 1-1v-3.54h1.28a1 1 0 0 0 1-1v-3.53h14.53V57.8h-3.2v-3.53a1 1 0 0 0-1.01-1zm-1 2v2.53H22.88v-2.52zM36.48 35.14v-2.52h7v2.52zm9.31-4.53H34.21v-2.52h11.58zm-7-4.53v-2.52h2.52v2.52zm-25.6-2.52h23.54v2.52H16.66a1 1 0 0 0-1 1V57.8h-2.52zm9.31 43.3h-9.36v-2.52h9.31zm44.41 0h-9.36v-2.52h9.31zm0-4.53H44.53a1 1 0 1 0 0 2h11v2.52H24.47v-2.51h11a1 1 0 1 0 0-2H13.14v-2.53h53.72zm0-4.53h-2.57V27.09a1 1 0 0 0-1-1H43.27v-2.53h23.59zm-.11-36.25H44.41V18a1 1 0 0 0-1-1H41v-1.92a1.94 1.94 0 0 1 2-1.94c1.17 0 1.72.56 2.66 1.63a5.93 5.93 0 0 0 4.81 2.56 12.34 12.34 0 0 0 4.53-.84 13.16 13.16 0 0 1 5-.86 6.48 6.48 0 0 1 6.84 5.77z"/></svg>