<svg xmlns="http://www.w3.org/2000/svg" width="80" height="80" viewBox="0 0 80 80"><path d="M12 54.84a8.13 8.13 0 0 0 7.12 12.07h41.7A8.13 8.13 0 0 0 68 54.84L47.12 17.29a8.14 8.14 0 0 0-14.24 0zm23-36.37a5.61 5.61 0 0 1 5-2.93 5.63 5.63 0 0 1 5 2.94l14 25.25H48.06l-.08-.4a8.09 8.09 0 0 0-1.19-2.86l-.23-.34 2.76-2.76a1.23 1.23 0 1 0-1.74-1.73l-2.75 2.75-.35-.22A8 8 0 0 0 41.63 37l-.4-.08v-5.79a1.23 1.23 0 1 0-2.46 0v5.77l-.4.08a7.86 7.86 0 0 0-2.85 1.19l-.34.22-2.76-2.75a1.23 1.23 0 1 0-1.74 1.73l2.76 2.76-.23.34A8.09 8.09 0 0 0 32 43.33l-.08.4h-5.04a1.23 1.23 0 1 0 0 2.45h5.06l.08.4a8.21 8.21 0 0 0 1.32 3.05l.25.34-2.91 2.9a1.23 1.23 0 0 0 1.74 1.74l2.95-3 .34.22a8.06 8.06 0 0 0 2.66 1.06l.4.08v5.77a1.23 1.23 0 0 0 2.46 0V53l.4-.08a8.06 8.06 0 0 0 2.66-1.06l.34-.22 2.95 3a1.27 1.27 0 0 0 1.74 0 1.23 1.23 0 0 0 0-1.74l-2.9-2.9.24-.34A8.21 8.21 0 0 0 48 46.58l.08-.4h12.3L65.82 56a5.69 5.69 0 0 1-5 8.44H19.15a5.69 5.69 0 0 1-5-8.43zM45.68 45a5.68 5.68 0 1 1-9.75-4l.06-.06A5.68 5.68 0 0 1 45.68 45z"/></svg>