<svg xmlns="http://www.w3.org/2000/svg" width="80" height="80" viewBox="0 0 80 80"><defs><style>.cls-1{fill:none}</style></defs><path class="cls-1" d="M71.78 45.88H73v-2.35h-2.4v1.18a1.17 1.17 0 0 0 1.18 1.17zM29.41 55.3A4.71 4.71 0 1 0 24.7 60a4.72 4.72 0 0 0 4.71-4.7zm-4.71 2.36a2.36 2.36 0 1 1 2.36-2.36 2.36 2.36 0 0 1-2.36 2.36zM63.54 50.59a4.71 4.71 0 1 0 4.7 4.71 4.72 4.72 0 0 0-4.7-4.71zm0 7.07a2.36 2.36 0 1 1 2.35-2.36 2.36 2.36 0 0 1-2.35 2.36zM64.71 24.7h-8.23v2.35h10.59a2.36 2.36 0 0 0-2.36-2.35zM56.48 29.41v7.06h11.43l-1.76-7.06h-9.67z"/><path d="M70.29 36.68h-.05l-1.85-7.38h.08a1 1 0 0 0 .81-1v-1.25a4.56 4.56 0 0 0-4.56-4.55h-8.39V20a2.21 2.21 0 0 0-2.21-2.2H11.75a2.21 2.21 0 0 0-2.2 2.2v20a1 1 0 0 0 2.06 0V20a.15.15 0 0 1 .14-.15h42.37a.15.15 0 0 1 .15.15v20a1 1 0 0 0 2.06 0v-1.33h13.09a3.67 3.67 0 0 1 3.5 2.56v.1h-3.5a1 1 0 0 0-1 1v2.36a3.39 3.39 0 0 0 3.39 3.38h1.29v5h-3v-.05A6.92 6.92 0 0 0 57 53v.05h-.66v-8.34a1 1 0 1 0-2.06 0v8.38h-23v-.05a6.91 6.91 0 0 0-13.06 0v.05h-6.4a.14.14 0 0 1-.14-.14v-2.51h4.85a1 1 0 1 0 0-2H5.87a1 1 0 1 0 0 2h3.68V53a2.21 2.21 0 0 0 2.2 2.2h6v.15a6.91 6.91 0 0 0 13.82 0v-.15h25v.15a6.92 6.92 0 0 0 13.83 0v-.15h3.68a1 1 0 0 0 1-1V42.35a5.77 5.77 0 0 0-4.79-5.67zm-14-12.13h8.38a2.51 2.51 0 0 1 2.51 2.5v.15H56.33zm0 12.07v-7.36h9.94l1.84 7.36zM24.7 60.16a4.86 4.86 0 1 1 4.86-4.86 4.87 4.87 0 0 1-4.86 4.86zm38.84 0a4.86 4.86 0 1 1 4.85-4.86 4.87 4.87 0 0 1-4.85 4.86zM73.1 46h-1.32a1.33 1.33 0 0 1-1.33-1.32v-1.3h2.65z"/><circle cx="24.7" cy="55.3" r="2.21"/><circle cx="63.54" cy="55.3" r="2.21"/><path d="M33.09 49.42a1 1 0 0 0 1 1h16.5a1 1 0 1 0 0-2H34.12a1 1 0 0 0-1.03 1zM8.22 45.74h14.13a1 1 0 0 0 0-2.06H8.22a1 1 0 0 0 0 2.06zM43.08 30.14a1 1 0 0 0 0-1.46 1 1 0 0 0-1.45 0l-9.87 9.87-.05-.06-5.11-5.1a1 1 0 0 0-1.45 0 1 1 0 0 0 0 1.45L31 40.73a1.06 1.06 0 0 0 .73.3 1 1 0 0 0 .73-.3z"/></svg>