<svg xmlns="http://www.w3.org/2000/svg" width="80" height="80" viewBox="0 0 80 80"><path d="M52.73 63.89a.9.9 0 0 0 .84.56h9.94a.91.91 0 0 0 .91-.91v-9.95a.91.91 0 0 0-1.55-.59l-9.95 9.9a.89.89 0 0 0-.19.99zm9.87-8.1v6.84h-6.84z"/><path d="M70.44 38.17a.91.91 0 0 0-1 .19l-2.73 2.73V22.56a.91.91 0 0 0-.91-.91h-7l2.54-2.54 2.44-2.45a2.75 2.75 0 0 0 0-3.92L61 9.91a2.79 2.79 0 0 0-3.93 0l-2.47 2.45-3 3-6.34 6.33H17.07v-9a.91.91 0 0 0-.91-.91A7.16 7.16 0 0 0 9 18.89v38.66a1.23 1.23 0 0 0 0 .19 6.9 6.9 0 0 0 6.87 6.37H43.7l-5.24 5.24a.91.91 0 0 0 .65 1.55h31A.91.91 0 0 0 71 70V39a.9.9 0 0 0-.56-.83zm-12.1-27a1 1 0 0 1 1.35 0L62.52 14a1 1 0 0 1 0 1.35l-1.81 1.8L56.54 13zm-3.09 3.09l4.18 4.18-1.67 1.67L53.58 16zm13.93 34.97H67.5a.91.91 0 1 0 0 1.82h1.68v2.75H67.5a.91.91 0 1 0 0 1.82h1.68v2.74H67.5a.91.91 0 0 0 0 1.82h1.68v2.74H67.5a.91.91 0 0 0 0 1.82h1.68v4.34H41.3l9.2-9.19a.92.92 0 0 0 0-1.29l-.13-.11a.92.92 0 0 0-1.16.11l-3.69 3.69H15.89a5 5 0 0 1-5.07-4.91v-.51a2 2 0 0 0 0-.24 1.43 1.43 0 0 1 0-.22v-.06-.17-.1c0-.03 0-.09.05-.14v-.13a.42.42 0 0 1 0-.1.87.87 0 0 1 .07-.17l.09-.22a5.36 5.36 0 0 1 3.72-2.91h1.03a.91.91 0 0 0 .91-.91v-6.8a.91.91 0 0 0-1.82 0v5.74a7.12 7.12 0 0 0-4.09 2l-.34.36V18.89a5.36 5.36 0 0 1 4.43-5.26v27.43a.91.91 0 0 0 1.82 0V23.47h26.8l-5 5a.91.91 0 0 0 1.29 1.29l6.59-6.59 5.95-5.95 4.18 4.17-.49.49-18.38 18.38-4.18-4.17 3.62-3.62a.91.91 0 0 0-1.29-1.29l-4.26 4.26-.06.07V35.68l-1.78 5-1.21 3.42v.14h-3a.91.91 0 0 0 0 1.82h25.2a.91.91 0 1 0 0-1.82H32.38l5.55-2h.19l.07-.06L57 23.47h7.9v19.44l-13 13a.91.91 0 0 0 0 1.28l.07.07a.93.93 0 0 0 1.15 0l.07-.07 16-16zM36 41.17l-2.6.92-1.74-1.73.92-2.61z"/></svg>