<svg xmlns="http://www.w3.org/2000/svg" width="80" height="80" viewBox="0 0 80 80"><path d="M68.12 10.06H11.88a2.79 2.79 0 0 0-2.79 2.79v42.67a.85.85 0 0 0 .85.84h22.24l-1.6 8h-2.22a.85.85 0 0 0-.84.84v3h-1.94v1.69h28.84v-1.64h-1.94v-3a.85.85 0 0 0-.84-.84h-2.22l-1.6-8h22.24a.85.85 0 0 0 .85-.84V12.85a2.79 2.79 0 0 0-2.79-2.79zm-17.33 56v2.19H29.21v-2.19zM32.3 64.37l1.6-8h12.2l1.6 8zm36.92-9.7H10.78v-9h58.44zm-13.7-35.88h-7.76a.85.85 0 0 0-.85.84v8.61h1.69v-7.76h6.07v4.13h-3.88v1.69h3.88v5.1h-3.88v1.69h3.88v5.1h-3.88v1.69h3.88V44H48.6v-7.75h-1.69V44h-4.13v-5c0-4.05 4.91-5 5.12-5a.77.77 0 0 0 .29-.1.89.89 0 0 0 .39-.52.84.84 0 0 0-.1-.64l-8.73-14.51a.77.77 0 0 0-.22-.22.89.89 0 0 0-1.23.23l-8.72 14.54a.79.79 0 0 0-.11.29.83.83 0 0 0 .69 1c.21 0 5.12.93 5.12 5v5h-4.13v-7.82h-1.69V44h-1.22V26.3h1.22v1.94h1.69v-2.79a1 1 0 0 0-.07-.33l-2.91-6.79a.82.82 0 0 0-.44-.44.85.85 0 0 0-1.11.44l-2.91 6.79a.78.78 0 0 0-.07.33V44h-8V16.6h48.73V44h-8V19.63a.85.85 0 0 0-.85-.84zM37 41.09v-1.21h4.12v1.21zm4.12 1.69V44H37v-1.22zm-4.18-4.59v-.11c-.52-3.46-3.77-4.9-5.14-5.37l-.14-.05 6.57-10.94v8.46h1.69v-8.46l6.56 11h-.14c-1.37.46-4.61 1.9-5.14 5.37v.11zM25.76 24.61l1.63-3.8 1.61 3.8zm.79 1.69V44h-1.22V26.3zM69.22 44h-3.16V15.76a.85.85 0 0 0-.85-.85H14.79a.85.85 0 0 0-.85.85V44h-3.16V12.85a1.1 1.1 0 0 1 1.1-1.1h56.24a1.1 1.1 0 0 1 1.1 1.1z"/><path d="M40 46.91a2.79 2.79 0 1 0 2.78 2.79A2.78 2.78 0 0 0 40 46.91zm0 3.88a1.1 1.1 0 1 1 1.09-1.09A1.09 1.09 0 0 1 40 50.79z"/></svg>