<svg xmlns="http://www.w3.org/2000/svg" width="80" height="80" viewBox="0 0 80 80"><path d="M18.23 12h-8.07a.94.94 0 1 0 0 1.87h8.07a.94.94 0 0 0 0-1.87zM18.23 65.19h-8.07a.94.94 0 1 0 0 1.87h8.07a.94.94 0 0 0 0-1.87z"/><path d="M11.64 60.56a.93.93 0 1 0-1.32 1.32l3 3a.92.92 0 0 0 1.32 0l.2-.2 2.77-2.77a.93.93 0 1 0-1.32-1.32l-1.18 1.18V17.3l1.31 1.31a.93.93 0 0 0 1.32-1.32l-2.91-2.91a.69.69 0 0 0-.3-.2.9.9 0 0 0-.72 0 .83.83 0 0 0-.3.2l-3.11 3.13a.93.93 0 0 0 .66 1.59 1 1 0 0 0 .67-.27l1.53-1.53v44.87zM43.71 60.12v-2.41h4.21a.94.94 0 1 0 0-1.87h-4.21V44h7.72v6.32a.94.94 0 0 0 1.87 0V12.94a.94.94 0 0 0-.94-.94h-30a.94.94 0 0 0-.94.94v53.19a.93.93 0 0 0 .94.93h9.54a.93.93 0 0 0 .94-.93v-8.42h9v2.41a.94.94 0 0 0 1.87 0zm0-18v-13h7.72v13zm7.72-14.84h-7.72V13.87h7.72zm-9.59 0h-9V13.87h9zM31 27.32h-7.75V13.87H31zM23.25 44H31v11.84h-7.75zm0-1.87v-13H31v13zm9.59-13h9v13h-9zM31 65.19h-7.75v-7.48H31zm1.87-9.35V44h9v11.84zM70.2 40.42a1 1 0 0 0-.72 0 1 1 0 0 0-.3.21L43.4 66.4a.92.92 0 0 0-.2.31.88.88 0 0 0 0 .71.91.91 0 0 0 .86.58h25.78a.94.94 0 0 0 .94-.94V41.29a.9.9 0 0 0-.08-.36.93.93 0 0 0-.5-.51zm-1.29 3.12v22.59H46.32z"/><path d="M65.34 53.16a.91.91 0 0 0-.58-.86.88.88 0 0 0-.71 0 .92.92 0 0 0-.31.2L56 60.27a1.21 1.21 0 0 0-.2.3.9.9 0 0 0 0 .72 1 1 0 0 0 .51.51 1 1 0 0 0 .35.07h7.78a.94.94 0 0 0 .93-.94v-7.77zM63.47 60h-4.58l4.58-4.58z"/></svg>