<svg data-name="Слой 1" xmlns="http://www.w3.org/2000/svg" viewBox="0 0 80 80"><path d="M69 37.31a12 12 0 0 0-3.12-7 11.45 11.45 0 0 0-15.95-16 12.06 12.06 0 0 0-7-3.12 9.92 9.92 0 0 0-7.81 3c-4.05 4.05-3.47 9.68 1.53 14.68l4.29 4.28L27.2 46.92l-3.05-3.05a3.24 3.24 0 1 0-4.58 4.58l3.05 3-3.05 3-3.05-3a3.31 3.31 0 0 0-4.57 0 3.22 3.22 0 0 0 0 4.57l3.05 3-2.29 2.29a4.31 4.31 0 0 0 6.1 6.1l6.1-6.1 3.05 3a3.24 3.24 0 1 0 4.58-4.57l-3.05-3L47 39.3l4.29 4.29c5 5 10.62 5.58 14.68 1.52a9.85 9.85 0 0 0 3.03-7.8zM24.15 50l-3-3a1.07 1.07 0 1 1 1.52-1.52l3.06 3.05-.67.66zm-10.68 4.55A1.08 1.08 0 0 1 15 53l3.05 3-1.31 1.31-.22.22zM31 61.41a1.09 1.09 0 0 1 0 1.53 1.11 1.11 0 0 1-1.52 0l-3-3L28 58.36zm33.47-17.82c-4.56 4.56-9.65.45-11.63-1.53L47.79 37a1.07 1.07 0 0 0-1.52 0l-29 29a2.16 2.16 0 1 1-3-3l10.64-10.74 3.05-3L43.22 34a1.1 1.1 0 0 0 0-1.53l-5.06-5.05c-2-2-6.08-7.07-1.52-11.63a7.76 7.76 0 0 1 5.56-2.37 9.72 9.72 0 0 1 6.8 3.05l.11.11a1.07 1.07 0 0 0 1.42 0 9.3 9.3 0 0 1 13.09 13.1 1.08 1.08 0 0 0 .06 1.45l.06.05c3.84 3.9 4.15 8.99.73 12.41z"/><path d="M55.42 18.71a4.3 4.3 0 0 0 0 6.1 4.31 4.31 0 0 0 6.1-6.1 4.42 4.42 0 0 0-6.1 0zM60 23.28a2.2 2.2 0 0 1-3.05 0 2.13 2.13 0 0 1-.63-1.52 2.18 2.18 0 0 1 .63-1.53 2.14 2.14 0 0 1 1.53-.63 2.12 2.12 0 0 1 1.52.63 2.16 2.16 0 0 1 0 3.05zM53.09 33.8a6.66 6.66 0 0 1-4.54-2.13 6.6 6.6 0 0 1-2.13-4.58 1.08 1.08 0 0 0-2.15-.1 8.57 8.57 0 0 0 2.73 6.2A8.73 8.73 0 0 0 53 36h.21a1.08 1.08 0 0 0 1-1.12 1 1 0 0 0-1.12-1.08zM58.85 30.53a1.62 1.62 0 1 0 2.29 0 1.61 1.61 0 0 0-2.29 0zM49.7 21.38a1.62 1.62 0 1 0-2.29 0 1.62 1.62 0 0 0 2.29 0z"/></svg>