<svg xmlns="http://www.w3.org/2000/svg" width="80" height="80" viewBox="0 0 80 80"><path d="M66.49 23.47l-1.4-.47a4.4 4.4 0 0 0-1.15-.18 3.77 3.77 0 0 0-3.51 2.55l-.8 2.38v-1.82a1.08 1.08 0 0 0-.35-.71l-14.42-14a1 1 0 0 0-.62-.26H16a.83.83 0 0 0-.88.88v2.72h-3.24a.83.83 0 0 0-.88.88v52.7a.83.83 0 0 0 .88.88h42.74a.83.83 0 0 0 .88-.88v-2.72h3.26a.83.83 0 0 0 .87-.88V52.66l2.47-3.34.09-.26 6.59-21a3.5 3.5 0 0 0-2.29-4.59zM45.12 14l11.52 11.05H45.12zM12.76 67.26V16.34h2.37v48.2a.83.83 0 0 0 .88.88h37.73v1.84zm45.12-3.6h-41V12.74h26.48v13.19a.83.83 0 0 0 .88.88H58v6.59l-4.13 13v.26L54 57.85a.82.82 0 0 0 .61.79.84.84 0 0 0 1-.35L58 55.13v8.53zm-2.2-8.53l-.18-7.3 4.4 1.4zM67.2 27.51l-6.33 20.14-5.1-1.65 6.33-20a1.9 1.9 0 0 1 2.37-1.23l1.41.44a1.86 1.86 0 0 1 1.32 2.3z"/><path d="M22.87 26.81h12.67a.83.83 0 0 0 .88-.88V17a.83.83 0 0 0-.88-.88H22.87A.83.83 0 0 0 22 17v9a1 1 0 0 0 .87.81zm.88-9h10.91v7.21H23.75zM21.11 35.08h26.74a.88.88 0 1 0 0-1.76H21.11a.88.88 0 1 0 0 1.76zM21.11 41.5h26.74a.88.88 0 0 0 0-1.76H21.11a.88.88 0 0 0 0 1.76zM21.11 47.92h26.74a.88.88 0 1 0 0-1.76H21.11a.88.88 0 1 0 0 1.76zM48.64 53.46a.83.83 0 0 0-.88-.88H21.11a.88.88 0 1 0 0 1.76h26.74a.87.87 0 0 0 .79-.88zM51.54 59H38.26a.88.88 0 1 0 0 1.76h13.2a.84.84 0 0 0 .88-.88.82.82 0 0 0-.8-.88z"/></svg>