<svg xmlns="http://www.w3.org/2000/svg" width="80" height="80" viewBox="0 0 80 80"><path d="M14.05 66.92H66a1 1 0 0 0 1-1V47.59a1 1 0 0 0-1-1H23.89V35.53l5.8 5.8a1 1 0 0 0 .69.29h3.49l2.16 2.15a1 1 0 0 0 1.38 0 1 1 0 0 0 0-1.39l-2.17-2.17v-3.45a1 1 0 0 0-.29-.69L22.61 23.72A4.78 4.78 0 0 0 14.34 27v27.44a2.75 2.75 0 0 0-1.23 2.3V66a1 1 0 0 0 .94.92zm9.84-39.14l9.4 9.39v2.5h-2.5l-6.9-6.9zM65 58.24h-8.65a1 1 0 0 0 0 2H65V65H25.16v-8.2a2.55 2.55 0 0 0-.1-.72L25 56h40zm-41.11-9.67H65V54H23.89zm-4.77-24.41a2.82 2.82 0 0 1 2.81 2.65.81.81 0 0 0 0 .15 2.81 2.81 0 0 1-5.61 0 .41.41 0 0 0 0-.11 2.82 2.82 0 0 1 2.8-2.69zM16.3 30.8l.12.08a4.71 4.71 0 0 0 2.69.84 4.77 4.77 0 0 0 2.71-.84l.11-.09V54H16.3zM15 56.77a.82.82 0 0 1 .82-.81h6.54a.81.81 0 0 1 .81.81V65H15z"/><path d="M39.83 52a1 1 0 0 0 .7.28 1 1 0 0 0 .69-.28 1 1 0 0 0 0-1.39 1 1 0 0 0-.69-.28 1 1 0 0 0-.7 1.67zM33.08 52a1 1 0 0 0 .7.28 1 1 0 0 0 .69-.28 1 1 0 0 0 0-1.39 1 1 0 0 0-.69-.28 1 1 0 0 0-.7 1.67zM26.33 52a1 1 0 0 0 .7.28 1 1 0 0 0 .69-.28 1 1 0 0 0 0-1.39 1 1 0 0 0-.69-.28 1 1 0 0 0-.7 1.67zM60.08 52a1 1 0 0 0 .7.28 1 1 0 0 0 .69-.28 1 1 0 0 0 0-1.39 1 1 0 0 0-.69-.28 1 1 0 0 0-.7 1.67zM46.58 52a1 1 0 0 0 .7.28A1 1 0 0 0 48 52a1 1 0 0 0 0-1.39 1 1 0 0 0-.69-.28 1 1 0 0 0-.7 1.67zM53.33 52a1 1 0 0 0 .7.28 1 1 0 0 0 .69-.28 1 1 0 0 0 0-1.39 1 1 0 0 0-.69-.28 1 1 0 0 0-.7 1.67zM18.13 27a1 1 0 0 0 1 1 1 1 0 0 0 .7-.29 1 1 0 0 0 .28-.69 1 1 0 0 0-1-1 1 1 0 0 0-.69.28 1 1 0 0 0-.29.7zM14.05 19.25h8.34a1 1 0 1 0 0-2H15V15h50v2.26H41v-.36a1 1 0 1 0-2 0v.39h-6.8a1 1 0 0 0 0 2H39V24l-2.7 2.71a.94.94 0 0 0-.29.69v2.44a1 1 0 0 0 .29.69l1.13 1.14a1 1 0 0 0 1.39 0 1 1 0 0 0 0-1.39l-.82-.81v-1.63l2-2 2 2v1.63l-.8.8a1 1 0 0 0 0 1.39 1 1 0 0 0 1.39 0l1.1-1.11a1 1 0 0 0 .29-.69v-2.42a.94.94 0 0 0-.29-.69L41 24v-4.75h13.5l-.07.12a4.36 4.36 0 0 0 .63 5.35 1 1 0 0 0 0 .23v7.32l-5.58 5.58a3.1 3.1 0 0 0-.61 3.51l-1.67 1.67a1 1 0 0 0 0 1.38 1 1 0 0 0 1.39 0l1.7-1.7a3.11 3.11 0 0 0 3.52-.6l6-6a3.08 3.08 0 0 0 1.45-2.61V25a1 1 0 0 0 0-.23 4.32 4.32 0 0 0 .63-5.35l-.07-.12H66a1 1 0 0 0 1-1v-4.25a1 1 0 0 0-1-1H14.05a1 1 0 0 0-1 1v4.22a1 1 0 0 0 1 .98zm38.38 21.67a1.09 1.09 0 0 1-.8.33 1.11 1.11 0 0 1-.77-.31 1.13 1.13 0 0 1-.31-.78 1.15 1.15 0 0 1 .33-.8l4.45-4.44v.1a3.13 3.13 0 0 0 1.42 1.5h.09zm6.84-7.19a1.13 1.13 0 0 1-.47.91 1 1 0 0 0-.17.1 1.07 1.07 0 0 1-.49.12A1.14 1.14 0 0 1 57 33.73v-7.88h.09a4.57 4.57 0 0 0 2.08 0h.09zM58.14 24a2.4 2.4 0 1 1 2.4-2.39 2.39 2.39 0 0 1-2.4 2.39z"/><path d="M28.25 17.58a1 1 0 0 0-1.39 0 1 1 0 0 0-.28.69 1 1 0 0 0 .28.7 1 1 0 0 0 1.39 0 1 1 0 0 0 .28-.7 1 1 0 0 0-.28-.69zM58.83 21a1 1 0 0 0-1.38 0 1 1 0 1 0 1.38 1.38 1 1 0 0 0 0-1.38zM19.12 57.74a2.72 2.72 0 1 0 2.72 2.72 2.72 2.72 0 0 0-2.72-2.72zm0 3.48a.76.76 0 1 1 .76-.76.76.76 0 0 1-.76.76zM51.44 59.92a1 1 0 0 0 .7.28 1 1 0 0 0 .69-.28 1 1 0 0 0 .29-.7 1 1 0 0 0-.29-.69 1 1 0 0 0-.69-.29 1 1 0 0 0-.7.29 1 1 0 0 0-.28.69 1 1 0 0 0 .28.7z"/></svg>