<svg xmlns="http://www.w3.org/2000/svg" width="80" height="80" viewBox="0 0 80 80"><path d="M37.55 45.53A3.56 3.56 0 0 0 40.16 47h.28a3.57 3.57 0 0 0 2.09-6.45l-12.94-9.36a1 1 0 0 0-1.4 1.4zm3.8-3.36a1.52 1.52 0 0 1 .65 1.15 1.57 1.57 0 0 1-2.82 1l-5.71-7.9z"/><path d="M18.08 22.49l2.15 2.15a26.79 26.79 0 0 0-3.57 4.81v.11A26.44 26.44 0 0 0 13.93 36a26.94 26.94 0 0 0 0 14 26.82 26.82 0 0 0 2.66 6.44v.06c0 .06 0 0 .06.08A27.08 27.08 0 0 0 20.87 62v.06h.06a27.08 27.08 0 0 0 5.48 4.21h.14A26.77 26.77 0 0 0 33 69.08a26.86 26.86 0 0 0 13.94 0 26.77 26.77 0 0 0 6.41-2.66h.09A27.08 27.08 0 0 0 59 62.13h.06v-.06a27.08 27.08 0 0 0 4.19-5.45l.06-.08c.06-.08 0 0 0-.06A26.82 26.82 0 0 0 66.07 50a26.94 26.94 0 0 0 0-14 26.87 26.87 0 0 0-2.68-6.44.07.07 0 0 0 0-.06v-.05a26.79 26.79 0 0 0-3.57-4.81l2.15-2.15 1.42 1.42 4.24-4.24-4.24-4.25-4.25 4.25 1.42 1.41-2.15 2.15a27.14 27.14 0 0 0-4.81-3.57h-.06A27.26 27.26 0 0 0 47 16.92a26.14 26.14 0 0 0-4-.75V15h1.5a2.5 2.5 0 0 0 0-5h-9a2.5 2.5 0 0 0 0 5H37v1.17a26.14 26.14 0 0 0-4 .75 26.37 26.37 0 0 0-6.43 2.67H26.45a27.14 27.14 0 0 0-4.81 3.57l-2.15-2.15 1.42-1.41-4.25-4.25-4.24 4.25 4.24 4.24zm45.26-4.24l1.41 1.42-1.41 1.41-1.42-1.41zM35.5 13a.5.5 0 0 1-.5-.5.5.5 0 0 1 .5-.5h9a.5.5 0 0 1 .5.5.5.5 0 0 1-.5.5H41v3h-2v-3zM23 27.44a1 1 0 0 0 1.41 0 1 1 0 0 0 0-1.41l-1.39-1.39a25.45 25.45 0 0 1 3.6-2.76l1 1.7a1 1 0 1 0 1.73-1l-1-1.7a23.75 23.75 0 0 1 4.19-1.75l.54 1.87a1 1 0 0 0 1 .74 1.09 1.09 0 0 0 .26 0 1 1 0 0 0 .66-1.22l-.51-1.9a23.67 23.67 0 0 1 3.6-.54L39 18v2a1 1 0 0 0 2 0v-2h.86a23.67 23.67 0 0 1 3.6.54L45 20.52a1 1 0 0 0 .71 1.23 1.09 1.09 0 0 0 .26 0 1 1 0 0 0 1-.74l.51-1.91a23.75 23.75 0 0 1 4.19 1.75l-1 1.7A1 1 0 0 0 51 24a1 1 0 0 0 1.37-.37l1-1.7A25.45 25.45 0 0 1 57 24.64L55.56 26a1 1 0 0 0 0 1.41 1 1 0 0 0 1.41 0l1.39-1.39a24.72 24.72 0 0 1 2.76 3.6l-1.7 1a1 1 0 0 0 1 1.74l1.71-1a24.49 24.49 0 0 1 1.74 4.19l-1.87.53a1 1 0 0 0 .26 2 .82.82 0 0 0 .26 0l1.91-.51A26.63 26.63 0 0 1 65 42h-2a1 1 0 0 0 0 2h2a24.74 24.74 0 0 1-.59 4.5l-1.94-.5a1 1 0 0 0-.47 1.92l1.91.51a23.75 23.75 0 0 1-1.75 4.19l-1.7-1a1 1 0 0 0-1 1.74l1.7 1a25.27 25.27 0 0 1-2.8 3.64L57 58.56A1 1 0 0 0 55.56 60L57 61.36a24.72 24.72 0 0 1-3.6 2.76l-1-1.7a1 1 0 1 0-1.74 1l1 1.7a23.75 23.75 0 0 1-4.19 1.75L46.92 65a1 1 0 1 0-1.93.52l.51 1.9A24.74 24.74 0 0 1 41 68v-2a1 1 0 0 0-2 0v2a24.74 24.74 0 0 1-4.5-.59l.51-1.9a1 1 0 1 0-1.93-.51l-.51 1.91a23.75 23.75 0 0 1-4.19-1.75l1-1.7a1 1 0 1 0-1.74-1l-1 1.7a24.72 24.72 0 0 1-3.6-2.76l1.4-1.4a1 1 0 0 0 0-1.41 1 1 0 0 0-1.41 0L21.64 60a25.27 25.27 0 0 1-2.76-3.6l1.7-1a1 1 0 0 0-1-1.74l-1.7 1a23.75 23.75 0 0 1-1.75-4.19l1.87-.55a1 1 0 1 0-.48-1.92l-1.9.51A24.74 24.74 0 0 1 15 44h2a1 1 0 0 0 0-2h-2a24.74 24.74 0 0 1 .59-4.5l1.91.51a.73.73 0 0 0 .25 0 1 1 0 0 0 .26-2l-1.91-.51a23.75 23.75 0 0 1 1.75-4.19l1.7 1a1 1 0 0 0 1-1.74l-1.7-1a24.72 24.72 0 0 1 2.76-3.6zm-6.37-9.19l1.42 1.42-1.42 1.41-1.41-1.41z"/></svg>