<svg xmlns="http://www.w3.org/2000/svg" width="80" height="80" viewBox="0 0 80 80"><path d="M51 30.9a1.23 1.23 0 0 0-.85-.35A1.2 1.2 0 0 0 49 31.74a1.23 1.23 0 0 0 .35.85 1.25 1.25 0 0 0 1.69 0 1.23 1.23 0 0 0 .35-.85 1.21 1.21 0 0 0-.39-.84zM43.18 54.61a1.2 1.2 0 0 0-2.39 0 5.81 5.81 0 0 0 4.78 5.52.18.18 0 0 1 .14.18v.34a1.2 1.2 0 0 0 2.39 0v-.34a.18.18 0 0 1 .14-.18A5.81 5.81 0 0 0 53 54.61 5.9 5.9 0 0 0 46.9 49a3.52 3.52 0 0 1-3.72-3.28 3.76 3.76 0 0 1 7.45 0 1.2 1.2 0 0 0 2.39 0 5.81 5.81 0 0 0-4.78-5.52.18.18 0 0 1-.14-.2v-.14a1.2 1.2 0 0 0-2.39 0V40a.18.18 0 0 1-.14.17 5.81 5.81 0 0 0-4.78 5.52 5.9 5.9 0 0 0 6.11 5.66 3.3 3.3 0 1 1-3.72 3.27z"/><path d="M71.33 55.51a37.34 37.34 0 0 0-8.16-23.25l-7.28-9.11a.16.16 0 0 1 0-.19l3.65-7.15a3.72 3.72 0 0 0-5.17-4.9 1.62 1.62 0 0 1-1.81-.14 9.38 9.38 0 0 0-11.79 0 1.62 1.62 0 0 1-1.81.14 3.72 3.72 0 0 0-5.17 4.9L37.43 23a.17.17 0 0 1 0 .19l-4.24 5.3a1.06 1.06 0 0 0 1.65 1.32l4.37-5.47a.2.2 0 0 1 .14-.06h9a.17.17 0 0 1 .17.17v3.45a1.06 1.06 0 1 0 2.11 0v-3.46a.17.17 0 0 1 .18-.17h1.88a.17.17 0 0 1 .17.17v12.29a1.06 1.06 0 1 0 2.11 0V25.91a.17.17 0 0 1 .12-.16.15.15 0 0 1 .19.05l6.22 7.77a35.28 35.28 0 0 1 7.69 21.94 13.71 13.71 0 0 1-13.69 13.7H37.8a13.54 13.54 0 0 1-11.2-5.81.22.22 0 0 1 0-.14.14.14 0 0 1 .09-.11c4.44-2.35 7.44-4.79 9.14-7.45 1.87-2.91 2.08-5.8 2.15-9V36.44a1.06 1.06 0 0 0-.61-1l-13.61-6.21a1 1 0 0 0-.88 0L9.29 35.48a1.07 1.07 0 0 0-.62 1v10.19c.08 3.23.29 6.12 2.15 9 2.06 3.21 5.89 6 12.06 8.88a1 1 0 0 0 .88 0l.69-.33h.08a.16.16 0 0 1 .14.07 15.8 15.8 0 0 0 13.13 7h17.72a15.83 15.83 0 0 0 15.81-15.78zM54 22.06a.16.16 0 0 1-.15.09H39.48a.16.16 0 0 1-.15-.09l-3.68-7.21A1.56 1.56 0 0 1 36 13a1.54 1.54 0 0 1 1.9-.22 3.75 3.75 0 0 0 4.21-.34 7.24 7.24 0 0 1 9.12 0 3.75 3.75 0 0 0 4.2.33 1.59 1.59 0 0 1 2.22 2.11zM23.39 62.42H23.24C11 56.65 10.91 52 10.79 46.66v-9.43a.18.18 0 0 1 .1-.16l12.36-5.68a.17.17 0 0 1 .14 0l12.36 5.68a.18.18 0 0 1 .1.16v9.42c-.12 5.35-.23 10-12.46 15.77z"/><path d="M29.57 41.74a1.23 1.23 0 0 0-1.69 0l-7.66 7.67a.18.18 0 0 1-.24 0l-3.25-3.25a1.2 1.2 0 0 0-.84-.35 1.2 1.2 0 0 0-.84 2l4.21 4.21a1.21 1.21 0 0 0 1.68 0l8.63-8.63a1.19 1.19 0 0 0 0-1.65z"/></svg>