<svg xmlns="http://www.w3.org/2000/svg" width="80" height="80" viewBox="0 0 80 80"><path d="M75.54 40.08a1.08 1.08 0 0 0-2.1.48 17 17 0 0 1 .4 3.63 16.4 16.4 0 0 1-16.38 16.38 16.23 16.23 0 0 1-12.57-5.88L53 45.27h10.35a1.08 1.08 0 1 0 0-2.16h-8.53l2.26-2.64a1.64 1.64 0 0 0-1.24-2.7h-11l4.89-8a16.38 16.38 0 0 1 22 6.3 1.08 1.08 0 0 0 .94.54 1.06 1.06 0 0 0 .54-.14 1.09 1.09 0 0 0 .4-1.47 18.56 18.56 0 0 0-21.91-8.41l4.7-7.7a1.73 1.73 0 0 0-1.48-2.64H38.67A1.74 1.74 0 0 0 37 17.38l-.75 2.06a1.08 1.08 0 0 0 .65 1.38 1.07 1.07 0 0 0 1.38-.65l.72-1.78h15.12L48 28.37l-6 9.92a1.07 1.07 0 0 0 0 1.09 1.08 1.08 0 0 0 .94.55H54.7L33.15 65.08l8.21-18.92a1.06 1.06 0 0 0-.08-1 1.1 1.1 0 0 0-.91-.49h-11a1.09 1.09 0 0 0 .1-.32L34.4 30.9l2.19-6a1.08 1.08 0 0 0-.59-1.4 1.09 1.09 0 0 0-1.39.65l-1.69 4.64a18.32 18.32 0 0 0-10.33-3.14 18.54 18.54 0 0 0-12 32.68 1 1 0 0 0 .7.26 1.06 1.06 0 0 0 .82-.38 1.08 1.08 0 0 0-.11-1.52 16.38 16.38 0 0 1 10.54-28.88 16.16 16.16 0 0 1 9.56 3.08l-4.45 12.22h-4V38.3a1.08 1.08 0 0 0-2.16 0v4.81h-4.84a1.08 1.08 0 0 0 0 2.16h4.81v4.81a1.08 1.08 0 0 0 2.16 0v-4.81H27a1.69 1.69 0 0 0 .29.84 1.64 1.64 0 0 0 1.34.7h10.08v.06l-3.17 7.29A16.38 16.38 0 0 1 16 59.21a1.09 1.09 0 0 0-1.42.56 1.07 1.07 0 0 0 .56 1.42A18.58 18.58 0 0 0 33.3 59.3l-4.13 9.51a1.4 1.4 0 0 0 .55 1.75 1.38 1.38 0 0 0 1.81-.28l11.94-13.93a18.36 18.36 0 0 0 14 6.38A18.56 18.56 0 0 0 76 44.19a18.3 18.3 0 0 0-.46-4.11z"/><path d="M29.21 21.31a1.1 1.1 0 0 0 .77.31 1.07 1.07 0 0 0 .76-.31 1.09 1.09 0 0 0 0-1.53l-5.16-5.16a1.07 1.07 0 0 0-1.52 0 1.09 1.09 0 0 0 0 1.53zM32.92 14.2A1.08 1.08 0 0 0 34 15a1.19 1.19 0 0 0 .32-.05 1.08 1.08 0 0 0 .68-1.38l-1.61-5.16a1.08 1.08 0 0 0-2.07.64zM51.16 14.05a1 1 0 0 0 .53.14 1.07 1.07 0 0 0 .94-.55l2.65-4.7a1.08 1.08 0 0 0-1.88-1.06l-2.65 4.7a1.08 1.08 0 0 0 .41 1.47zM28.94 64.13a1.08 1.08 0 0 0-1.52-.13l-4.18 3.4a1.08 1.08 0 0 0 .68 1.92 1.09 1.09 0 0 0 .68-.24l4.19-3.41a1.08 1.08 0 0 0 .15-1.54zM56.57 23.51a1.1 1.1 0 0 0 .89.47 1.11 1.11 0 0 0 .62-.2l4.42-3.09a1.08 1.08 0 1 0-1.23-1.77L56.84 22a1.08 1.08 0 0 0-.27 1.51zM46.68 63.17a1.08 1.08 0 0 0-1.53 1.53l5.16 5.16a1.08 1.08 0 0 0 1.53-1.53zM42.05 67.5a1.08 1.08 0 0 0-2.08.6l1.1 3.79a1.07 1.07 0 0 0 1 .78 1 1 0 0 0 .3 0 1.07 1.07 0 0 0 .74-1.34z"/></svg>