<?xml version="1.0" encoding="utf-8"?>
<!-- Generator: Adobe Illustrator 21.0.0, SVG Export Plug-In . SVG Version: 6.00 Build 0)  -->
<svg version="1.1" id="Слой_1" xmlns="http://www.w3.org/2000/svg" xmlns:xlink="http://www.w3.org/1999/xlink" x="0px" y="0px"
	 viewBox="0 0 80 80" style="enable-background:new 0 0 80 80;" xml:space="preserve">
<path d="M40,66.8c-0.6,0-1,0.4-1,1V72c0,0.6,0.4,1,1,1s1-0.4,1-1v-4.2C41,67.2,40.6,66.8,40,66.8C40,66.8,40,66.7,40,66.8z"/>
<path d="M41,58.1c0-0.6-0.5-1-1-1s-1,0.5-1,1v5.6c0,0.6,0.5,1,1,1s1-0.5,1-1V58.1z"/>
<path d="M20.5,73h15.3c0.6,0,1-0.5,1-1s-0.5-1-1-1H20.5c-0.6,0-1,0.5-1,1S20,73,20.5,73z"/>
<path d="M43.1,72c0,0.6,0.4,1,1,1h15.3c0.6,0,1-0.5,1-1s-0.5-1-1-1H44.2c-0.6,0-1,0.4-1,1C43.1,71.9,43.1,72,43.1,72z"/>
<path d="M53.9,7h-5.5c-0.6,0-1,0.5-1,1c0,0.6,0.5,1,1,1h5.5c0.2,0,0.3,0.2,0.3,0.3v2.8c0,0.2-0.2,0.3-0.3,0.3H34.4c-0.6,0-1,0.5-1,1
	c0,0.6,0.5,1,1,1h14.2v4.9H38.6c-0.6,0-1,0.5-1,1c0,0.6,0.5,1,1,1h11.1c1,0,1.7,0.8,1.7,1.7v8.3c0,1-0.8,1.7-1.7,1.7H38.6
	c-0.6,0-1,0.5-1,1s0.5,1,1,1h10.1v3.1c0,0.2-0.2,0.3-0.3,0.4H31.7c-0.2,0-0.3-0.2-0.3-0.4v-3.1h3.1c0.6,0,1-0.5,1-1s-0.5-1-1-1h-4.2
	c-1,0-1.7-0.8-1.7-1.7v-8.3c0-1,0.8-1.7,1.7-1.7h4.2c0.6,0,1-0.5,1-1c0-0.6-0.5-1-1-1h-3.1v-5.9c0-0.6-0.4-1-1-1c0,0,0,0-0.1,0h-4.2
	c-0.2,0-0.3-0.2-0.3-0.3V9.4c0-0.2,0.2-0.3,0.3-0.3h18.1c0.6,0,1-0.5,1-1c0-0.6-0.5-1-1-1H26.1c-1.3,0-2.4,1.1-2.4,2.4c0,0,0,0,0,0
	v2.8c0,1.3,1.1,2.4,2.4,2.4c0,0,0,0,0,0h3.1v5c-1.6,0.5-2.8,2-2.8,3.7v8.3c0,1.7,1.1,3.2,2.8,3.7v3.3c0,1.1,0.7,2,1.8,2.3l6.1,12.2
	c0.8,1.6,2.8,2.3,4.4,1.5c0.6-0.3,1.2-0.8,1.5-1.5l6-12.2c1-0.3,1.7-1.3,1.7-2.3v-3.3c1.6-0.5,2.8-2,2.8-3.7v-8.3
	c0-1.7-1.1-3.2-2.8-3.7v-5h3.1c1.3,0,2.4-1.1,2.4-2.4c0,0,0,0,0,0V9.4C56.3,8.1,55.2,7,53.9,7z M41.1,52.2c-0.3,0.6-1,0.8-1.6,0.5
	c-0.2-0.1-0.4-0.3-0.5-0.5L33.3,41h13.3L41.1,52.2z"/>
</svg>
