<svg xmlns="http://www.w3.org/2000/svg" width="80" height="80" viewBox="0 0 80 80"><path d="M39.52 12.73l-25.64 17.4a.86.86 0 0 0-.38.71v35.72a.86.86 0 0 0 .86.85h51.28a.86.86 0 0 0 .86-.85V30.84a.86.86 0 0 0-.38-.71l-25.64-17.4a.88.88 0 0 0-.96 0zM24.38 45.44h1.94v4.63a.86.86 0 0 0 .86.86h3.66a.85.85 0 0 0 .86-.86v-4.63h1.95v9.27h-9.27zm-1.84-10.88v-1.94h34.92v1.94zM28 49.21v-3.77h2v3.77zm2 7.22v3.77h-2v-3.77zm3.67 9.27h-9.29v-9.27h1.94v4.63a.86.86 0 0 0 .86.86h3.66a.85.85 0 0 0 .86-.86v-4.63h1.95zm11 0h-9.31v-9.27h2v4.63a.85.85 0 0 0 .86.86h3.66a.85.85 0 0 0 .86-.86v-4.63h2zM39 60.2v-3.77h2v3.77zm25.75 5.5h-7.41V47.33a.86.86 0 1 0-1.72 0V65.7h-9.27V55.57a.85.85 0 0 0-.86-.86H35.36V44.58a.85.85 0 0 0-.85-.86H24.38v-7.44h31.24v7.38a.86.86 0 1 0 1.72 0v-7.38h1a.85.85 0 0 0 .86-.86v-3.66a.85.85 0 0 0-.86-.86H21.69a.85.85 0 0 0-.86.86v3.66a.85.85 0 0 0 .86.86h1V65.7h-7.47V31.3L40 14.48 64.78 31.3z"/><path d="M35.48 20.77a.86.86 0 0 0 .86.86h7.32a.86.86 0 1 0 0-1.72h-7.32a.86.86 0 0 0-.86.86zM43.66 23.57h-7.32a.86.86 0 0 0 0 1.72h7.32a.86.86 0 0 0 0-1.72zM43.66 27.24h-7.32a.86.86 0 1 0 0 1.71h7.32a.86.86 0 1 0 0-1.71zM30.84 53.68a.86.86 0 0 0 0-1.72h-3.66a.86.86 0 0 0 0 1.72zM30.84 63h-3.66a.86.86 0 0 0 0 1.72h3.66a.86.86 0 0 0 0-1.72zM41.83 63h-3.66a.86.86 0 0 0 0 1.72h3.66a.86.86 0 0 0 0-1.72z"/></svg>