<svg xmlns="http://www.w3.org/2000/svg" width="80" height="80" viewBox="0 0 80 80"><path d="M66.92 46.5a.9.9 0 0 0-1 .22l-4 4.16V26.34l3.73-4a.89.89 0 0 0 .23-.64.86.86 0 0 0-.28-.62l-1.37-1.27 1.87-2a.88.88 0 0 0 0-1.26l-4-3.73a.87.87 0 0 0-.61-.24.87.87 0 0 0-.62.29l-6.53 7H22.55a4.56 4.56 0 0 0-4.55-4.6h-.92a4.57 4.57 0 0 0-4.56 4.56v39.42a.89.89 0 0 0 .89.89h13.93l-2 2.36a.89.89 0 0 0 .12 1.25l4.23 3.52a.86.86 0 0 0 .57.21h.08a.87.87 0 0 0 .6-.32l4.7-5.64a2.7 2.7 0 0 0 .59-1.35h16.93L47.6 66a.9.9 0 0 0 0 1.26.86.86 0 0 0 .61.25h18.38a.89.89 0 0 0 .89-.89V47.33a.9.9 0 0 0-.56-.83zM20.77 58.36H14.3a2.79 2.79 0 0 1 2.78-2.78H18a2.78 2.78 0 0 1 2.77 2.78zm0-3.62a4.5 4.5 0 0 0-2.77-.96h-.92a4.53 4.53 0 0 0-2.74.93V19.83a2.79 2.79 0 0 1 2.78-2.78H18a2.78 2.78 0 0 1 2.77 2.78zm43-33l-1.82 2v-1.43l1.11-1.21.69.64zM60.29 16l1.27-1.36 2.71 2.5L63 18.58l-2.71-2.51zm-1.23 1.33l2.71 2.51-1.59 1.71L52.42 30l-2.71-2.51zm-8.35 13.5h-.05l-2.15.62.49-2.18zM32.55 62.49l-2.37 2.84L27.33 63l2.37-2.84 2.84 2.36zm1.76-2.12l-.61.72-2.83-2.36.59-.71a.93.93 0 0 1 .64-.33h.08a1 1 0 0 1 .6.21l1.4 1.17a.91.91 0 0 1 .34.64.93.93 0 0 1-.21.66zm1.59-2a2.77 2.77 0 0 0-.56-.67l-1.41-1.17a2.74 2.74 0 0 0-3.84.35l-1.25 1.5h-6.29V21.64h30.13l-4.87 5.26a.74.74 0 0 0-.15.26v.07a.08.08 0 0 0 0 .05l-1.1 5.23a.91.91 0 0 0 1.13 1l5.13-1.5h.06a.83.83 0 0 0 .26-.19l7.08-7.64v28.57l-5.34 5.6zm29.8 7.33H50.33L65.7 49.56z"/><path d="M62.92 55.61a.94.94 0 0 0-.63.26l-6.42 6.42a.9.9 0 0 0-.19 1 .88.88 0 0 0 .82.55h6.42a.89.89 0 0 0 .89-.89V56.5a.89.89 0 0 0-.89-.89zM62 62h-3.34L62 58.66zM52.84 47.36h-6.45V37.25a.88.88 0 0 0-.26-.63l-5.5-5.5a.89.89 0 0 0-1.26 0l-5.5 5.5a.88.88 0 0 0-.26.63v10.11h-6.45a.89.89 0 1 0 0 1.78h25.68a.89.89 0 1 0 0-1.78zM40 33l3.35 3.35h-6.7zm4.61 14.35h-9.22v-9.21h9.22zM39.11 27.19h1.78v1.78h-1.78zM39.11 51.03h1.78v1.78h-1.78z"/></svg>