<svg xmlns="http://www.w3.org/2000/svg" width="80" height="80" viewBox="0 0 80 80"><path d="M25.05 56.91a25.82 25.82 0 0 0 9.5 9L44 71l9.42-5.14A25.88 25.88 0 0 0 66.9 43.13V13.07h-2.22a54.41 54.41 0 0 1-20.32-3.92L44 9l-.37.15a54.5 54.5 0 0 1-20.33 3.92h-2.23V34h-5a3 3 0 0 0-3 3v16.92a3 3 0 0 0 3 3zm-2-41.85h.23A56.57 56.57 0 0 0 44 11.15a56.48 56.48 0 0 0 20.69 3.91h.23v28.07a23.89 23.89 0 0 1-12.45 21L44 68.73l-8.47-4.62A24 24 0 0 1 27 56.2a3 3 0 0 0 1-2.09 21.89 21.89 0 0 0 8.45 8.25l7.55 4.1 7.51-4.1a21.9 21.9 0 0 0 11.41-19.23V28h-2v15.13a19.9 19.9 0 0 1-10.37 17.48L44 64.19l-6.57-3.58a20 20 0 0 1-6.94-6.32 2.46 2.46 0 0 1 .72.68 4.35 4.35 0 0 0 3.62 1.94H49.5a5.45 5.45 0 0 0 5.5-5.45v-11A5.45 5.45 0 0 0 49.5 35h-7.3a1.2 1.2 0 0 1-1.2-1.2v-6.29a4.49 4.49 0 0 0-9 0v5.14A4.33 4.33 0 0 1 28 37a3 3 0 0 0-1-2.18V18.93a60.74 60.74 0 0 0 17-3.52 60.67 60.67 0 0 0 16.93 3.52V20h2v-3h-1a58.5 58.5 0 0 1-17.64-3.58l-.29-.14-.35.13A58.5 58.5 0 0 1 26 17h-.95v17h-2zM42.2 37h7.3a3.46 3.46 0 0 1 3.5 3.43v11a3.45 3.45 0 0 1-3.45 3.46H34.82a2.36 2.36 0 0 1-2-1.06 4.35 4.35 0 0 0-3.62-1.93H28V39a6.33 6.33 0 0 0 6-6.31v-5.18a2.49 2.49 0 1 1 5 0v6.28A3.2 3.2 0 0 0 42.2 37zM15.09 53.92V37a1 1 0 0 1 1-1h9a1 1 0 0 1 1 1v16.92a1 1 0 0 1-1 1h-9a1 1 0 0 1-1-1z"/><path d="M60.92 24.03h1.99v1.99h-1.99zM17.08 50.93h6.97v1.99h-6.97z"/></svg>