<svg xmlns="http://www.w3.org/2000/svg" width="80" height="80" viewBox="0 0 80 80"><path d="M72.94 38.94h-2.15A30.79 30.79 0 0 0 41.06 9.21V7.06a1.06 1.06 0 0 0-2.12 0v2.15A30.79 30.79 0 0 0 9.21 38.94H7.06a1.06 1.06 0 1 0 0 2.12h2.15a30.79 30.79 0 0 0 29.73 29.73v2.15a1.06 1.06 0 0 0 2.12 0v-2.15a30.79 30.79 0 0 0 29.73-29.73h2.15a1.06 1.06 0 0 0 0-2.12zM19.71 19.71a28.56 28.56 0 0 1 19.23-8.38v2.13a26.6 26.6 0 0 0-25.48 25.48h-2.13a28.56 28.56 0 0 1 8.38-19.23zm0 40.58a28.56 28.56 0 0 1-8.38-19.23h2.13a26.5 26.5 0 0 0 6.62 16.51 1 1 0 0 0 .79.36 1.07 1.07 0 0 0 .8-1.77 24.39 24.39 0 0 1-6.08-15.1h5.29a1.06 1.06 0 0 0 0-2.12h-5.29a24.46 24.46 0 0 1 23.35-23.35v5.29a1.06 1.06 0 0 0 2.12 0v-5.29a24.33 24.33 0 0 1 12.18 3.86 1.06 1.06 0 1 0 1.15-1.78 26.44 26.44 0 0 0-13.33-4.21v-2.13a28.68 28.68 0 0 1 27.61 27.61h-2.13a26.44 26.44 0 0 0-4.21-13.33 1.08 1.08 0 0 0-1.47-.32 1.06 1.06 0 0 0-.31 1.47 24.33 24.33 0 0 1 3.86 12.18h-5.29a1.06 1.06 0 1 0 0 2.12h5.29a24.46 24.46 0 0 1-23.35 23.35v-5.29a1.06 1.06 0 0 0-2.12 0v5.3a24.18 24.18 0 0 1-14.21-5.34 1.06 1.06 0 0 0-1.33 1.66 26.68 26.68 0 0 0 15.54 5.8v2.13a28.56 28.56 0 0 1-19.23-8.38zm40.58 0a28.56 28.56 0 0 1-19.23 8.38v-2.13a26.6 26.6 0 0 0 25.48-25.48h2.13a28.56 28.56 0 0 1-8.38 19.23z"/><path d="M56.29 21.79a24.66 24.66 0 0 1 2 2.05 1.07 1.07 0 0 0 .79.35 1.05 1.05 0 0 0 .8-1.76 27.35 27.35 0 0 0-2.21-2.23 1.07 1.07 0 0 0-1.42 1.59zM27.25 41.06h3.25a9.57 9.57 0 0 0 8.44 8.44v3.25a1.06 1.06 0 0 0 2.12 0V49.5a9.57 9.57 0 0 0 8.44-8.44h3.25a1.06 1.06 0 0 0 0-2.12H49.5a9.57 9.57 0 0 0-8.44-8.44v-3.25a1.06 1.06 0 0 0-2.12 0v3.25a9.57 9.57 0 0 0-8.44 8.44h-3.25a1.06 1.06 0 1 0 0 2.12zm5.39 0h6.3v6.3a7.47 7.47 0 0 1-6.3-6.3zm8.42 6.3v-6.3h6.3a7.47 7.47 0 0 1-6.3 6.3zm6.3-8.42h-6.3v-6.3a7.47 7.47 0 0 1 6.3 6.3zm-8.42-6.3v6.3h-6.3a7.47 7.47 0 0 1 6.3-6.3z"/></svg>